<svg width="1440" height="220" viewBox="0 0 1440 220" fill="none" xmlns="http://www.w3.org/2000/svg">
<g filter="url(#filter0_d_8_16)">
<path fill-rule="evenodd" clip-rule="evenodd" d="M1440 21.6258V220H0V22.1299H-5V12.1299H0C8.68256 12.1299 11.6114 12.8788 14.6929 13.6668L14.8692 13.7119C17.1848 14.3034 19.8875 14.9827 29.2792 14.9827C49.4598 14.9827 71.429 13.8314 89.0834 11.2269C101.418 9.40725 118.757 9.64476 133.605 9.84814L133.605 9.84814C137.999 9.90833 142.175 9.96553 145.938 9.96553C177.761 9.96553 205.113 9.70436 235.679 7.88387C248.935 7.09435 259.267 6.16799 272.12 4.92507C276.364 4.51477 280.047 4.01873 283.628 3.53646C290.821 2.56779 297.602 1.65468 307.676 1.60356C316.796 1.55729 325.536 1.18318 334.358 0.805634L334.359 0.805567C336.028 0.73412 337.701 0.662551 339.379 0.593057C349.887 0.157919 360.572 -0.192457 371.933 0.118792C402.051 0.943955 432.85 2.76787 462.303 4.53923C471.979 5.12115 481.336 5.79514 490.637 6.46506L490.637 6.46509C502.511 7.32039 514.293 8.16906 526.529 8.811C552.829 10.1908 578.602 11.46 604.976 12.7588L604.979 12.7589L608.751 12.9448C619.55 13.4767 630.701 13.7464 641.936 14.0182C662.187 14.5082 682.713 15.0048 701.955 17.0549C722.035 19.1944 752.557 19.1781 775.883 19.1656C777.614 19.1647 779.306 19.1638 780.951 19.1638C794.342 19.1638 807.522 19.3735 820.647 19.5825L820.652 19.5826L820.652 19.5826C833.789 19.7917 846.871 20 860.136 20C879.327 20 898.321 18.7586 917.428 17.5097C929.842 16.6983 942.305 15.8838 954.901 15.4045C996.475 13.8225 1043.96 14.5124 1085.45 15.635C1122.39 16.6344 1155.78 16.4613 1187.26 11.2861C1205.73 8.24893 1228.77 7.52201 1252.09 7.53188C1263.77 7.53683 1275.6 7.72788 1287.03 7.91688L1287.91 7.9315C1299.04 8.11567 1309.76 8.29312 1319.65 8.29312C1331.14 8.29312 1342.72 9.13732 1354.1 9.96599L1354.19 9.97267C1365.66 10.8082 1376.91 11.6258 1388 11.6258C1391.78 11.6258 1395.51 11.5902 1399.24 11.5545C1406.74 11.483 1414.24 11.4114 1422.14 11.6277C1424.55 11.6937 1426.35 11.744 1427.69 11.7813C1428.61 11.807 1429.31 11.8266 1429.84 11.841C1430.08 11.7953 1430.29 11.773 1430.4 11.7621C1430.66 11.7362 1430.96 11.7202 1431.25 11.7082C1432.37 11.6619 1434.72 11.6287 1439.38 11.626L1440 11V11.6258H1445V21.6258H1440Z" fill="#9D8568"/>
</g>
<defs>
<filter id="filter0_d_8_16" x="-5" y="0" width="1450" height="226" filterUnits="userSpaceOnUse" color-interpolation-filters="sRGB">
<feFlood flood-opacity="0" result="BackgroundImageFix"/>
<feColorMatrix in="SourceAlpha" type="matrix" values="0 0 0 0 0 0 0 0 0 0 0 0 0 0 0 0 0 0 127 0" result="hardAlpha"/>
<feOffset dy="6"/>
<feComposite in2="hardAlpha" operator="out"/>
<feColorMatrix type="matrix" values="0 0 0 0 0.615686 0 0 0 0 0.521569 0 0 0 0 0.407843 0 0 0 1 0"/>
<feBlend mode="normal" in2="BackgroundImageFix" result="effect1_dropShadow_8_16"/>
<feBlend mode="normal" in="SourceGraphic" in2="effect1_dropShadow_8_16" result="shape"/>
</filter>
</defs>
</svg>
