<svg width="126" height="99" viewBox="0 0 126 99" fill="none" xmlns="http://www.w3.org/2000/svg">
<path d="M49.5902 74.2076V61.1167H53.6235C54.4545 61.1167 55.1662 61.2871 55.7585 61.628C56.3551 61.9689 56.8132 62.4356 57.1328 63.0279C57.4524 63.6202 57.6122 64.2956 57.6122 65.0542C57.6122 65.8042 57.4524 66.4753 57.1328 67.0677C56.8132 67.66 56.3551 68.1287 55.7585 68.4739C55.1662 68.8148 54.4566 68.9853 53.6299 68.9853H50.1527V68.2438H53.6108C54.2841 68.2438 54.8593 68.1074 55.3366 67.8347C55.8139 67.5577 56.1804 67.1806 56.436 66.7033C56.6917 66.2218 56.8196 65.6721 56.8196 65.0542C56.8196 64.432 56.6917 63.8802 56.436 63.3986C56.1804 62.9171 55.8118 62.54 55.3302 62.2672C54.8529 61.9945 54.2777 61.8581 53.6044 61.8581H50.3892V74.2076H49.5902ZM62.4411 74.2076H61.5973L66.321 61.1167H67.2415L71.9652 74.2076H71.1215L66.8132 62.1458H66.7493L62.4411 74.2076ZM63.6364 69.2793H69.9261V70.0208H63.6364V69.2793ZM78.007 74.2076V61.1167H82.0403C82.867 61.1167 83.5787 61.2786 84.1753 61.6025C84.7719 61.9263 85.23 62.3759 85.5496 62.9512C85.8692 63.5222 86.029 64.187 86.029 64.9455C86.029 65.6955 85.8692 66.356 85.5496 66.927C85.23 67.4938 84.7719 67.937 84.1753 68.2566C83.583 68.5762 82.8734 68.736 82.0467 68.736H78.4352V67.9881H82.0276C82.7009 67.9881 83.2761 67.8624 83.7534 67.611C84.2307 67.3596 84.5972 67.008 84.8528 66.5563C85.1085 66.1003 85.2364 65.5634 85.2364 64.9455C85.2364 64.3233 85.1085 63.7822 84.8528 63.3219C84.5972 62.8574 84.2286 62.4974 83.747 62.2417C83.2697 61.986 82.6945 61.8581 82.0212 61.8581H78.806V74.2076H78.007ZM83.3827 68.2758L86.6043 74.2076H85.6838L82.4814 68.2758H83.3827ZM92.3168 74.2076H91.4731L96.1968 61.1167H97.1173L101.841 74.2076H100.997L96.689 62.1458H96.6251L92.3168 74.2076ZM93.5121 69.2793H99.8019V70.0208H93.5121V69.2793ZM53.2208 96.2076H49.5902V83.1167H53.5021C54.7294 83.1167 55.7798 83.3766 56.6534 83.8965C57.527 84.4164 58.196 85.1621 58.6605 86.1337C59.1292 87.101 59.3615 88.2623 59.3572 89.6174C59.353 91.0023 59.1101 92.187 58.6285 93.1714C58.147 94.1515 57.4503 94.9036 56.5383 95.4278C55.6264 95.9476 54.5206 96.2076 53.2208 96.2076ZM50.3892 95.4661H53.1889C54.3565 95.4661 55.3409 95.2339 56.142 94.7694C56.9431 94.3006 57.5483 93.6295 57.9574 92.7559C58.3707 91.8823 58.5753 90.8361 58.571 89.6174C58.571 88.4157 58.3728 87.3866 57.9765 86.53C57.5802 85.6692 57.0028 85.0087 56.2443 84.5485C55.49 84.0883 54.5653 83.8581 53.4701 83.8581H50.3892V95.4661ZM66.8739 83.1167V96.2076H66.0749V83.1167H66.8739ZM83.4354 87.2076C83.3374 86.7644 83.1712 86.3361 82.9368 85.9228C82.7025 85.5052 82.402 85.1302 82.0355 84.7978C81.6733 84.4611 81.2472 84.1948 80.7571 83.9988C80.2713 83.8028 79.7259 83.7047 79.1208 83.7047C78.1961 83.7047 77.3757 83.9476 76.6598 84.4334C75.9482 84.915 75.39 85.6032 74.9851 86.4981C74.5846 87.3887 74.3843 88.4434 74.3843 89.6621C74.3843 90.8681 74.5846 91.9185 74.9851 92.8134C75.3857 93.7083 75.9461 94.4008 76.6662 94.8908C77.3907 95.3766 78.2323 95.6195 79.1911 95.6195C80.0476 95.6195 80.8061 95.4214 81.4667 95.0251C82.1314 94.6287 82.6492 94.062 83.0199 93.3248C83.3907 92.5876 83.5718 91.7054 83.5632 90.6785L83.8445 90.8127H79.3956V90.0712H84.3431V90.8127C84.3431 91.9675 84.1215 92.9626 83.6783 93.7978C83.2394 94.6287 82.63 95.2679 81.8502 95.7154C81.0746 96.1628 80.1882 96.3866 79.1911 96.3866C78.0661 96.3866 77.0838 96.1074 76.2444 95.5492C75.4049 94.991 74.7529 94.209 74.2884 93.2033C73.8282 92.1934 73.598 91.013 73.598 89.6621C73.598 88.6479 73.7302 87.7275 73.9944 86.9008C74.2586 86.0741 74.6357 85.3667 75.1257 84.7786C75.6158 84.1863 76.1996 83.7324 76.8772 83.4171C77.5547 83.0975 78.3026 82.9377 79.1208 82.9377C79.8623 82.9377 80.5292 83.0613 81.1215 83.3084C81.7138 83.5513 82.2252 83.8795 82.6556 84.2928C83.0902 84.7019 83.4418 85.16 83.7103 85.6671C83.9787 86.1699 84.1598 86.6834 84.2536 87.2076H83.4354ZM91.187 83.1167H92.0564L97.0997 95.057H97.1892L102.232 83.1167H103.102V96.2076H102.335V85.0151H102.258L97.5216 96.2076H96.7673L92.0308 85.0151H91.9541V96.2076H91.187V83.1167ZM109.979 96.2076H109.136L113.859 83.1167H114.78L119.503 96.2076H118.66L114.351 84.1458H114.288L109.979 96.2076ZM111.175 91.2793H117.464V92.0208H111.175V91.2793Z" fill="white"/>
<path d="M47.7966 40.9012H49.0596C49.1829 40.9012 49.3055 40.9197 49.4233 40.9559C50.2187 41.2007 51.0239 40.606 51.0239 39.7738V37.9078C51.0239 36.4635 52.1947 35.2927 53.6389 35.2927H61.8259C62.8862 35.2927 63.7457 36.1523 63.7457 37.2125C63.7457 37.3909 63.7705 37.5684 63.8195 37.74L63.8702 37.9171C63.9689 38.2626 64.1245 38.5892 64.3305 38.8836L64.728 39.4514C64.8936 39.6879 65.0795 39.9096 65.2837 40.1138L65.3218 40.1519C65.9888 40.8189 66.8384 41.2736 67.7634 41.4586C68.1836 41.5426 68.6133 41.5697 69.0409 41.5392L69.6536 41.4954C70.0902 41.4642 70.5205 41.3725 70.9319 41.2229C71.5159 41.0106 72.0523 40.6851 72.5103 40.2652L72.7615 40.035C73.2225 39.6124 73.6084 39.1146 73.9026 38.5628L74.3592 37.7067C74.486 37.469 74.5524 37.2037 74.5524 36.9342C74.5524 36.0277 75.2873 35.2927 76.1939 35.2927H84.5383H93.1691C94.2234 35.2927 95.1594 35.9674 95.4928 36.9675C95.5761 37.2173 95.6185 37.4788 95.6185 37.7421V38.9003C95.6185 39.6841 95.5224 40.465 95.3323 41.2254L95.249 41.5586C95.0403 42.3936 94.7246 43.1982 94.3097 43.9524L94.17 44.2066C93.6794 45.0984 93.0556 45.9102 92.32 46.6138L91.583 47.3187C90.7244 48.14 89.7186 48.7919 88.6183 49.2401C87.2839 49.7838 85.8428 50.0149 84.4054 49.9157L83.6347 49.8626C82.9621 49.8162 82.2959 49.7019 81.6462 49.5214L80.6552 49.2461C80.3268 49.1549 80.0106 49.0247 79.7133 48.8582L77.9784 47.8867C77.2549 47.4815 76.3471 47.6315 75.7923 48.2479C75.6066 48.4542 75.3752 48.6141 75.1165 48.7147L73.9863 49.1542C73.3639 49.3963 72.7094 49.5463 72.0436 49.5995L69.6278 49.7928H67.2563C66.4776 49.7928 65.7103 49.6057 65.019 49.2473L63.4224 48.4194C62.7813 48.0869 62.0079 48.1419 61.4202 48.5617L60.337 49.5675C59.7842 50.0808 59.1744 50.529 58.5194 50.9032L58.4175 50.9615C57.8674 51.2758 57.285 51.5297 56.6802 51.7186L55.9545 51.9454C55.5878 52.06 55.2059 52.1183 54.8217 52.1183H52.3539C51.6194 52.1183 51.0239 51.5229 51.0239 50.7883V50.3171C51.0239 49.5237 50.1769 49.0178 49.4783 49.3939C49.3256 49.4762 49.1548 49.5192 48.9813 49.5192H48.5128C48.0069 49.5192 47.5099 49.3872 47.0707 49.1363L46.0372 48.5457C45.2796 48.1128 44.6878 47.4396 44.3556 46.6327C44.0653 45.9277 43.9866 45.1533 44.1293 44.4043L44.2352 43.8483C44.3798 43.0891 44.7633 42.3959 45.3297 41.87C46.0003 41.2473 46.8815 40.9012 47.7966 40.9012Z" fill="#747474"/>
<path d="M20.5883 34.4719H2.74206C2.13036 34.4719 1.5492 34.7392 1.15111 35.2036C1.02272 35.3534 0.916119 35.5206 0.834478 35.7002L0.62284 36.1658C0.391267 36.6753 0.236001 37.2161 0.162039 37.7708L0 38.9861V40.354L0.173088 41.7387C0.239977 42.2738 0.350044 42.8027 0.502212 43.32L0.957553 44.8682L1.31507 45.7977C1.53226 46.3624 1.80023 46.9062 2.11571 47.4224L3.14625 49.1088L3.81974 50.0068C4.19071 50.5014 4.60674 50.9605 5.0625 51.3783L5.45038 51.7339C5.82883 52.0808 6.23345 52.398 6.66062 52.6828L7.20368 53.0449C7.50778 53.2476 7.79679 53.4721 8.06845 53.7166L8.41981 54.0328C8.8226 54.3953 9.28389 54.687 9.7841 54.8954L10.5015 55.1943C10.6127 55.2406 10.7319 55.2645 10.8523 55.2645C11.3559 55.2645 11.7642 55.6728 11.7642 56.1764V59.4868C11.7642 59.8621 11.8143 60.2357 11.913 60.5978L11.9498 60.7326C12.0987 61.2786 12.3347 61.797 12.6486 62.268L13.5425 63.6089L14.1456 64.4861C14.743 65.3549 15.474 66.1239 16.3115 66.7643L17.3728 67.5759C18.3507 68.2871 19.5288 68.6702 20.7381 68.6702H21.6133C22.8348 68.6702 23.9153 69.4621 24.2831 70.6269L24.486 71.2693L25.4436 73.3212L26.2643 75.3731L27.0671 76.9786C27.261 77.3666 27.4186 77.7717 27.5378 78.1887L27.6526 78.5906C27.8199 79.1762 28.0965 79.7248 28.4678 80.2075L28.7464 80.5696C29.0916 81.0184 29.5512 81.3662 30.0769 81.5765C30.45 81.7257 30.8482 81.8024 31.25 81.8024H31.6997C32.0844 81.8024 32.4649 81.7216 32.8165 81.5654C33.2731 81.3624 33.6658 81.0389 33.9523 80.6295L33.9629 80.6145C34.2942 80.1411 34.4719 79.5774 34.4719 78.9996V78.5193V78.1669C34.4719 77.042 34.2821 75.9251 33.9105 74.8634L33.7984 74.543C33.6094 74.0031 33.4671 73.4478 33.373 72.8835L33.104 71.2693L32.6936 68.6702L31.9518 65.3321C31.8993 65.0959 31.8728 64.8547 31.8728 64.6128V64.5501C31.8728 63.9364 32.0545 63.3364 32.3949 62.8257C32.5926 62.5293 32.7378 62.201 32.8242 61.8554L33.104 60.7362L33.2085 60.4575C33.3751 60.0132 33.8789 59.7981 34.315 59.985C34.4185 60.0294 34.53 60.0522 34.6426 60.0522H35.8398H36.3763C37.6485 60.0522 38.909 59.8095 40.0902 59.337L40.354 59.2315L41.1748 58.8211L41.7344 58.4713C42.0904 58.2488 42.4292 58 42.7479 57.7268C43.0666 57.4536 43.4054 57.2047 43.7614 56.9822L44.321 56.6324C44.7533 56.2866 45.005 55.763 45.005 55.2093V50.4767C45.005 50.1745 44.76 49.9295 44.4578 49.9295C44.368 49.9295 44.2796 49.9074 44.2003 49.8652L42.2691 48.8352L41.9886 48.7149C40.9404 48.2657 40.1087 47.4256 39.6701 46.3729L39.416 45.4414C39.3123 45.061 39.2597 44.6684 39.2597 44.274C39.2597 43.5852 39.42 42.9059 39.7281 42.2899L40.0708 41.6044C40.2592 41.2275 40.4812 40.8684 40.734 40.5314L40.929 40.2713C41.0924 40.0534 41.2781 39.8532 41.483 39.6739C41.9981 39.2232 42.6223 38.9154 43.2934 38.7812L43.6371 38.7125C44.4325 38.5534 45.005 37.855 45.005 37.0439V36.6518C45.005 35.4479 44.029 34.4719 42.8251 34.4719H30.9828C30.4112 34.4719 30.0076 33.9119 30.1883 33.3697C30.2168 33.2843 30.2313 33.1949 30.2313 33.1049V31.736V30.9828C30.2313 30.7568 30.1949 30.5324 30.1235 30.3181C29.9313 29.7415 29.4989 29.2764 28.9379 29.0426L28.1794 28.7266L27.5697 28.4217C27.0711 28.1724 26.5212 28.0426 25.9637 28.0426C25.3534 28.0426 24.7532 28.1981 24.2197 28.4945L23.802 28.7266L22.8445 29.4105L22.362 29.7121C21.9814 29.95 21.7501 30.3672 21.7501 30.816C21.7501 30.9721 21.7221 31.1269 21.6673 31.2731L21.5425 31.6057C21.4084 31.9632 21.3398 32.342 21.3398 32.7239V33.1049C21.3398 33.1949 21.3543 33.2843 21.3827 33.3697C21.5635 33.9119 21.1599 34.4719 20.5883 34.4719Z" fill="#9D8568"/>
<path d="M26.0287 6.42124L25.6 7.33581C24.9202 8.78605 23.463 9.71232 21.8613 9.71232C21.3361 9.71232 20.8156 9.81256 20.3279 10.0076L19.0143 10.5331L17.457 11.4229C16.5851 11.9212 15.7931 12.548 15.1079 13.2822L14.2265 14.2265L13.1414 15.2341C12.591 15.7452 12.1179 16.3337 11.7371 16.9811L11.3374 17.6606C11.0774 18.1026 10.9085 18.5922 10.8408 19.1005L10.5256 21.4641C10.4516 22.0194 9.97791 22.4341 9.41769 22.4341C9.25143 22.4341 9.08726 22.4712 8.93714 22.5427L7.46849 23.242C6.68924 23.6131 5.9725 24.1032 5.344 24.6947L4.09372 25.8715C4.00965 25.9506 3.93688 26.0409 3.87748 26.1399C3.37506 26.9773 3.97823 28.0426 4.95476 28.0426H19.4406C19.9607 28.0426 20.3822 27.6211 20.3822 27.1011C20.3822 26.9999 20.3985 26.8993 20.4305 26.8033L20.6475 26.1524C20.9208 25.3326 21.4252 24.6092 22.1 24.0693C22.3222 23.8915 22.5609 23.7353 22.8127 23.6028L23.6281 23.1736C24.538 22.6947 25.5831 22.5372 26.5938 22.7267C27.0105 22.8048 27.4142 22.9407 27.7934 23.1302L28.2433 23.3552C28.8334 23.6503 29.3604 24.0574 29.7949 24.554L30.6831 25.569C30.9209 25.8409 31.0521 26.1899 31.0521 26.5511C31.0521 27.3749 31.7198 28.0426 32.5436 28.0426H41.4484C43.186 28.0426 44.5946 26.634 44.5946 24.8964V21.8869V21.5012C44.5946 20.4965 45.5982 19.801 46.539 20.1538C46.7005 20.2144 46.8717 20.2454 47.0443 20.2454H47.6494C48.3405 20.2454 49.0234 20.0954 49.6509 19.8058L49.8952 19.6931C50.2798 19.5155 50.6301 19.2713 50.9296 18.9718C51.6031 18.2983 51.9815 17.3848 51.9815 16.4324V16.0048V15.6487C51.9815 14.7247 51.6868 13.8248 51.1404 13.0797L51.1027 13.0283C50.6921 12.4683 50.146 12.022 49.5156 11.731C48.9772 11.4825 48.3914 11.3538 47.7984 11.3538H47.0443C46.8717 11.3538 46.7005 11.3849 46.539 11.4455C45.5982 11.7983 44.5946 11.1028 44.5946 10.098V3.91048C44.5946 2.61524 43.8279 1.44286 42.6412 0.923698C42.4846 0.855179 42.3228 0.799084 42.1574 0.755933L40.7676 0.393362C39.7683 0.132694 38.7348 0.0283739 37.7036 0.0841125L36.2727 0.16146C34.9044 0.235422 33.5659 0.589802 32.3403 1.20261L30.9684 1.88856C30.2065 2.26948 29.4965 2.74617 28.8555 3.30706L27.4408 4.54492C26.8453 5.06593 26.3645 5.70484 26.0287 6.42124Z" fill="#747474"/>
<path d="M50.2031 9.57371V4.10383C50.2031 3.82202 50.5249 3.66116 50.7503 3.83024L51.0022 4.01918C51.1872 4.15787 51.4283 4.19701 51.6476 4.12391C51.6877 4.11055 51.7289 4.10082 51.7708 4.09485L52.6654 3.96703C53.0288 3.87618 53.402 3.83024 53.7766 3.83024H55.4013C55.8559 3.83024 56.3092 3.87999 56.7529 3.97861L57.3164 4.10383L58.2837 4.42626C58.7326 4.5759 59.1703 4.75721 59.5936 4.96883L59.7787 5.06138L60.2754 5.33732C60.7641 5.60886 61.2293 5.92091 61.6659 6.2702L62.3778 6.83969L62.5001 6.94167C62.9648 7.32887 63.3933 7.75741 63.7805 8.22204L63.8825 8.34442L64.3404 8.98554C64.4908 9.19614 64.6584 9.39394 64.8414 9.57694L65.1842 9.91976C65.2282 9.96371 65.2666 10.0129 65.2986 10.0662L65.5034 10.4076C65.5922 10.5556 65.78 10.6103 65.9344 10.5331L66.2952 10.3888C66.51 10.3029 66.7334 10.2403 66.9616 10.2023L67.0903 10.1809C67.3215 10.1423 67.5457 10.0694 67.7554 9.96459C67.9089 9.88786 68.0703 9.82815 68.2367 9.78654L68.2442 9.78467C68.4363 9.73664 68.6336 9.71235 68.8316 9.71235H71.2348C71.8038 9.71235 72.3717 9.76356 72.9316 9.86535L73.1521 9.90546C73.4469 9.95904 73.7374 10.0335 74.0216 10.1282C74.5555 10.3062 75.0632 10.5545 75.5314 10.8666L75.6467 10.9435L75.7029 10.9716C76.3905 11.3154 77.0182 11.7678 77.5618 12.3114C78.1055 12.7645 78.5737 13.3012 78.9488 13.9014L79.0665 14.0897L80.1609 15.5945C80.434 16.0497 80.6703 16.5261 80.8675 17.019L81.1184 17.6464L81.221 17.9539C81.3348 18.2954 81.4176 18.6463 81.4685 19.0026L81.498 19.209C81.5185 19.3526 81.5288 19.4975 81.5288 19.6425V19.8351C81.5288 21.4216 82.815 22.7077 84.4015 22.7077L84.8888 22.7686C85.2906 22.8189 85.6809 22.937 86.043 23.1181L87.1373 23.5285L87.9581 23.9389L88.9157 24.486L89.2928 24.6477C89.6777 24.8126 90.0366 25.0326 90.3583 25.3006C90.5815 25.4867 90.7854 25.6947 90.9669 25.9216L91.2411 26.2643L92.0197 27.1726C92.0477 27.2054 92.0716 27.2414 92.0909 27.2799C92.2661 27.6304 92.0113 28.0427 91.6195 28.0427H71.8488C71.5826 28.0427 71.4094 28.3228 71.5285 28.5609C71.5381 28.5802 71.5494 28.5985 71.5623 28.6157L71.8518 29.0017C71.9193 29.0917 71.9786 29.1876 72.0289 29.2882C72.1591 29.5486 72.2269 29.8357 72.2269 30.1269V31.5582C72.2269 32.035 72.1159 32.5053 71.9026 32.9318C71.755 33.2271 71.5607 33.4966 71.3273 33.73L70.8589 34.1984L70.3708 34.6052C70.1502 34.789 69.9041 34.9398 69.6403 35.0529C69.271 35.2111 68.8735 35.2927 68.4718 35.2927H68.3007C68.0915 35.2927 67.8825 35.2754 67.6761 35.241L67.065 35.1392C66.5895 35.0599 66.1344 34.8876 65.7256 34.6321C65.4106 34.4353 65.1274 34.1917 64.8857 33.9097L64.7689 33.7734C64.5434 33.5103 64.3468 33.2237 64.1825 32.9187L63.8 32.2083C63.5848 31.8085 63.4721 31.3616 63.4721 30.9076C63.4721 30.6406 63.5111 30.375 63.5878 30.1193L63.8628 29.2027C63.8759 29.1591 63.8939 29.117 63.9165 29.0774C64.1452 28.6773 63.8563 28.1795 63.3954 28.1795H53.623C51.7343 28.1795 50.2031 26.6483 50.2031 24.7596V23.1105C50.2031 22.1326 50.9959 21.3398 51.9738 21.3398C52.2487 21.3398 52.5198 21.2758 52.7657 21.1528L53.3209 20.8752C53.6126 20.7294 53.8871 20.5516 54.1395 20.3451L54.7552 19.8414C55.0928 19.5651 55.3875 19.2401 55.6296 18.8771L55.6446 18.8545C55.9359 18.4176 56.1437 17.9306 56.2576 17.4181C56.3249 17.1152 56.3588 16.8059 56.3588 16.4956V15.7906C56.3588 14.9473 56.1218 14.1209 55.6749 13.4058L55.378 12.9817C54.9427 12.3599 54.3778 11.8398 53.7221 11.4573C53.2934 11.2072 52.8314 11.0192 52.3499 10.8988L51.5652 10.7026C51.4783 10.6809 51.389 10.6699 51.2993 10.6699C50.6939 10.6699 50.2031 10.1791 50.2031 9.57371Z" fill="#9D8568"/>
</svg>
