<svg width="89" height="79" viewBox="0 0 89 79" fill="none" xmlns="http://www.w3.org/2000/svg">
<path d="M41.154 61H40.5915L43.7407 52.2727H44.3543L47.5034 61H46.9409L44.0688 52.9588H44.0262L41.154 61ZM41.9509 57.7145H46.1441V58.2088H41.9509V57.7145ZM53.9517 61H51.5313V52.2727H54.1392C54.9574 52.2727 55.6577 52.446 56.2401 52.7926C56.8225 53.1392 57.2685 53.6364 57.5782 54.2841C57.8907 54.929 58.0455 55.7031 58.0426 56.6065C58.0398 57.5298 57.8779 58.3196 57.5569 58.9759C57.2358 59.6293 56.7713 60.1307 56.1634 60.4801C55.5554 60.8267 54.8182 61 53.9517 61ZM52.064 60.5057H53.9304C54.7088 60.5057 55.3651 60.3509 55.8992 60.0412C56.4333 59.7287 56.8367 59.2812 57.1094 58.6989C57.385 58.1165 57.5213 57.419 57.5185 56.6065C57.5185 55.8054 57.3864 55.1193 57.1222 54.5483C56.858 53.9744 56.473 53.5341 55.9674 53.2273C55.4645 52.9205 54.848 52.767 54.1179 52.767H52.064V60.5057ZM62.5211 52.2727H63.1007L66.4629 60.233H66.5225L69.8848 52.2727H70.4643V61H69.9529V53.5384H69.9018L66.7441 61H66.2413L63.0836 53.5384H63.0325V61H62.5211V52.2727ZM75.9186 52.2727V61H75.386V52.2727H75.9186ZM87.5136 52.2727V61H86.9937L81.4284 53.2401H81.3772V61H80.8446V52.2727H81.3687L86.9341 60.0412H86.9852V52.2727H87.5136ZM42.3871 76V67.2727H45.0761C45.63 67.2727 46.1045 67.3864 46.4994 67.6136C46.8971 67.8409 47.2025 68.152 47.4156 68.5469C47.6286 68.9418 47.7352 69.392 47.7352 69.8977C47.7352 70.3977 47.6286 70.8452 47.4156 71.2401C47.2025 71.6349 46.8971 71.9474 46.4994 72.1776C46.1045 72.4048 45.6315 72.5185 45.0803 72.5185H42.7621V72.0241H45.0675C45.5164 72.0241 45.8999 71.9332 46.2181 71.7514C46.5363 71.5668 46.7806 71.3153 46.9511 70.9972C47.1215 70.6761 47.2067 70.3097 47.2067 69.8977C47.2067 69.483 47.1215 69.1151 46.9511 68.794C46.7806 68.473 46.5349 68.2216 46.2139 68.0398C45.8957 67.858 45.5121 67.767 45.0633 67.767H42.9198V76H42.3871ZM50.9544 76H50.3919L53.5411 67.2727H54.1547L57.3038 76H56.7413L53.8692 67.9588H53.8266L50.9544 76ZM51.7513 72.7145H55.9445V73.2088H51.7513V72.7145ZM68.0007 67.2727V76H67.4808L61.9155 68.2401H61.8643V76H61.3317V67.2727H61.8558L67.4212 75.0412H67.4723V67.2727H68.0007ZM72.9192 76V67.2727H77.7771V67.767H73.4518V71.3849H77.5172V71.8793H73.4518V75.5057H77.8794V76H72.9192ZM82.3856 76V67.2727H82.9183V75.5057H87.1796V76H82.3856Z" fill="white"/>
<path d="M37.2048 31.8376H38.1879C38.2839 31.8376 38.3793 31.8519 38.471 31.8802C39.0901 32.0707 39.7169 31.6077 39.7169 30.96V29.5075C39.7169 28.3833 40.6282 27.4719 41.7524 27.4719H48.1251C48.9505 27.4719 49.6195 28.141 49.6195 28.9663C49.6195 29.1052 49.6389 29.2433 49.677 29.3768L49.7164 29.5147C49.7933 29.7837 49.9144 30.0379 50.0748 30.2671L50.3841 30.709C50.513 30.8932 50.6578 31.0657 50.8167 31.2246L50.8464 31.2543C51.3656 31.7735 52.0269 32.1274 52.7469 32.2714C53.074 32.3368 53.4085 32.358 53.7413 32.3342L54.2182 32.3001C54.5581 32.2758 54.893 32.2044 55.2133 32.088C55.6679 31.9227 56.0854 31.6694 56.4419 31.3425L56.6374 31.1633C56.9963 30.8344 57.2966 30.4469 57.5257 30.0174L57.8811 29.351C57.9798 29.1659 58.0314 28.9594 58.0314 28.7497C58.0314 28.044 58.6035 27.4719 59.3092 27.4719H65.8045H72.5227C73.3434 27.4719 74.072 27.9971 74.3315 28.7756C74.3963 28.97 74.4293 29.1736 74.4293 29.3785V30.2801C74.4293 30.8902 74.3545 31.498 74.2065 32.0899L74.1668 32.249C73.9876 32.9655 73.7167 33.656 73.3608 34.3032C72.9398 35.0685 72.4045 35.7651 71.7733 36.3689L71.2881 36.833C70.6198 37.4722 69.8368 37.9796 68.9804 38.3286C67.9417 38.7517 66.8199 38.9316 65.701 38.8545L65.2212 38.8214C64.6178 38.7798 64.0201 38.6772 63.4373 38.5153L62.7819 38.3333C62.5263 38.2623 62.2801 38.1609 62.0487 38.0313L60.6983 37.2751C60.1351 36.9596 59.4285 37.0764 58.9966 37.5562C58.8521 37.7168 58.6719 37.8413 58.4705 37.9196L57.5908 38.2617C57.1063 38.4501 56.5969 38.5669 56.0786 38.6084L54.1982 38.7588H52.3522C51.7461 38.7588 51.1488 38.6132 50.6107 38.3341L49.3679 37.6897C48.8688 37.4309 48.2668 37.4737 47.8094 37.8005L46.9662 38.5834C46.5359 38.983 46.0612 39.3318 45.5514 39.6231L45.4721 39.6685C45.0439 39.9131 44.5905 40.1107 44.1198 40.2578L43.5549 40.4344C43.2694 40.5236 42.9721 40.5689 42.6731 40.5689H40.7521C40.1804 40.5689 39.7169 40.1055 39.7169 39.5337V39.1669C39.7169 38.5493 39.0576 38.1555 38.5138 38.4483C38.3949 38.5123 38.2619 38.5458 38.1269 38.5458H37.7622C37.3685 38.5458 36.9815 38.4431 36.6397 38.2477L35.8352 37.788C35.2455 37.451 34.7849 36.9271 34.5262 36.299C34.3003 35.7502 34.2391 35.1474 34.3501 34.5644L34.4326 34.1316C34.5451 33.5406 34.8436 33.001 35.2845 32.5917C35.8065 32.107 36.4924 31.8376 37.2048 31.8376Z" fill="#747474"/>
<path d="M16.0259 26.8329H2.13442C1.65827 26.8329 1.2059 27.041 0.896027 27.4025C0.796083 27.5191 0.713107 27.6492 0.649558 27.789L0.484818 28.1515C0.304562 28.548 0.183703 28.969 0.126131 29.4008L0 30.3468V31.4116L0.112461 32.3112C0.17935 32.8464 0.289417 33.3752 0.441584 33.8926L0.745359 34.9254L0.951313 35.4609C1.1685 36.0256 1.43647 36.5694 1.75195 37.0856L2.44904 38.2263L2.84972 38.7605C3.22068 39.2551 3.63671 39.7143 4.09247 40.1321L4.11659 40.1542C4.49504 40.5011 4.89965 40.8183 5.32683 41.1031L5.60734 41.2901C5.84405 41.4479 6.06902 41.6227 6.28048 41.813L6.55398 42.0591C6.86751 42.3413 7.22658 42.5683 7.61594 42.7306L8.17438 42.9633C8.26089 42.9993 8.35368 43.0179 8.4474 43.0179C8.83945 43.0179 9.15727 43.3357 9.15727 43.7277V46.3045C9.15727 46.5966 9.19622 46.8875 9.27308 47.1693L9.3017 47.2742C9.41761 47.6993 9.60129 48.1028 9.84567 48.4694L10.5415 49.5131L10.8111 49.9053C11.4085 50.7742 12.1395 51.5431 12.977 52.1836L13.5229 52.6011C14.2842 53.1547 15.2012 53.4529 16.1425 53.4529H16.8238C17.7746 53.4529 18.6157 54.0693 18.902 54.976L19.0599 55.476L19.8053 57.0732L20.4441 58.6704L21.069 59.9201C21.22 60.2221 21.3427 60.5375 21.4354 60.8621L21.5248 61.1749C21.655 61.6307 21.8703 62.0578 22.1594 62.4335L22.3762 62.7154C22.6449 63.0647 23.0026 63.3354 23.4119 63.4991C23.7023 63.6153 24.0122 63.675 24.325 63.675H24.675C24.9745 63.675 25.2707 63.6121 25.5443 63.4905C25.8998 63.3325 26.2054 63.0807 26.4285 62.762L26.4367 62.7503C26.6946 62.3819 26.8329 61.943 26.8329 61.4933V61.1195V61.0205C26.8329 60.0288 26.6656 59.0442 26.338 58.1081C26.1713 57.632 26.0459 57.1425 25.963 56.645L25.7681 55.476L25.4487 53.4529L24.8713 50.8545C24.8304 50.6707 24.8098 50.4829 24.8098 50.2946V50.2458C24.8098 49.7681 24.9512 49.301 25.2162 48.9036C25.3701 48.6728 25.4831 48.4173 25.5503 48.1482L25.7681 47.2771L25.8495 47.0601C25.9792 46.7143 26.3713 46.5468 26.7108 46.6923C26.7914 46.7269 26.8781 46.7447 26.9658 46.7447H27.8977H28.0941C29.2305 46.7447 30.3565 46.5278 31.4116 46.1058L32.0504 45.7863L32.486 45.5141C32.7631 45.3409 33.0269 45.1472 33.275 44.9345C33.5231 44.7218 33.7868 44.5281 34.0639 44.3549L34.4995 44.0827C34.836 43.8135 35.0319 43.4059 35.0319 42.9749V39.2911C35.0319 39.0558 34.8412 38.8652 34.606 38.8652C34.5361 38.8652 34.4672 38.8479 34.4055 38.815L32.9023 38.0133L32.6839 37.9197C31.868 37.57 31.2206 36.9161 30.8792 36.0967L30.6814 35.3716C30.6007 35.0754 30.5597 34.7699 30.5597 34.4629C30.5597 33.9268 30.6846 33.398 30.9243 32.9184L31.1911 32.3848C31.3378 32.0915 31.5106 31.812 31.7073 31.5496L31.8592 31.3472C31.9863 31.1776 32.1309 31.0218 32.2904 30.8822C32.6913 30.5314 33.1772 30.2918 33.6996 30.1873L33.9671 30.1338C34.5862 30.01 35.0319 29.4664 35.0319 28.835V28.5298C35.0319 27.5926 34.2722 26.8329 33.335 26.8329H24.117C23.6721 26.8329 23.3579 26.397 23.4986 25.975C23.5208 25.9085 23.5321 25.8389 23.5321 25.7688V24.7033V24.117C23.5321 23.9411 23.5037 23.7664 23.4481 23.5996C23.2985 23.1508 22.9619 22.7887 22.5252 22.6068L21.9349 22.3608L21.4603 22.1235C21.0721 21.9294 20.6441 21.8284 20.2102 21.8284C19.7351 21.8284 19.2679 21.9494 18.8526 22.1801L18.5275 22.3608L17.7821 22.8932L17.4066 23.1279C17.1103 23.3131 16.9303 23.6378 16.9303 23.9872C16.9303 24.1087 16.9084 24.2292 16.8658 24.343L16.7687 24.6018C16.6643 24.8802 16.6109 25.175 16.6109 25.4723V25.7688C16.6109 25.8389 16.6222 25.9085 16.6443 25.975C16.785 26.397 16.4708 26.8329 16.0259 26.8329Z" fill="#9D8568"/>
<path d="M20.2605 4.99829L19.9268 5.71019C19.3977 6.83906 18.2634 7.56007 17.0167 7.56007C16.6078 7.56007 16.2026 7.63809 15.823 7.78995L14.8005 8.19895L13.8798 8.72504C13.0079 9.22331 12.2159 9.85009 11.5307 10.5843L11.0737 11.0739L10.2291 11.8582C9.80064 12.256 9.43239 12.7142 9.13595 13.2181L8.82485 13.747C8.62246 14.091 8.49101 14.4722 8.43825 14.8678L8.19294 16.7076C8.13531 17.1399 7.7666 17.4627 7.33053 17.4627C7.20111 17.4627 7.07332 17.4916 6.95647 17.5472L5.81327 18.0916C5.2067 18.3804 4.64879 18.7619 4.15956 19.2224L3.18635 20.1383C3.1209 20.1999 3.06426 20.2703 3.01802 20.3473C2.62694 20.9991 3.09645 21.8284 3.85658 21.8284H15.1324C15.5372 21.8284 15.8653 21.5002 15.8653 21.0955C15.8653 21.0167 15.878 20.9384 15.9029 20.8637L16.0718 20.3571C16.2845 19.7189 16.6772 19.1558 17.2025 18.7355C17.3754 18.5972 17.5612 18.4756 17.7572 18.3724L18.3919 18.0384C19.1002 17.6656 19.9137 17.543 20.7004 17.6905C21.0248 17.7513 21.339 17.857 21.6342 18.0046L21.9844 18.1797C22.4437 18.4094 22.854 18.7263 23.1921 19.1128L23.8835 19.9029C24.0687 20.1145 24.1707 20.3862 24.1707 20.6674C24.1707 21.3086 24.6905 21.8284 25.3317 21.8284H32.2632C33.6158 21.8284 34.7122 20.7319 34.7122 19.3793V17.0368V16.7365C34.7122 15.9544 35.4934 15.4131 36.2257 15.6877C36.3515 15.7349 36.4847 15.759 36.619 15.759H37.0901C37.628 15.759 38.1596 15.6423 38.648 15.4168L38.8382 15.3291C39.1376 15.1909 39.4102 15.0008 39.6434 14.7676C40.1676 14.2434 40.4622 13.5324 40.4622 12.791V12.4581V12.1809C40.4622 11.4617 40.2328 10.7612 39.8075 10.1812L39.7782 10.1412C39.4586 9.70536 39.0334 9.35789 38.5427 9.1314C38.1237 8.93799 37.6676 8.83783 37.2061 8.83783H36.619C36.4847 8.83783 36.3515 8.86199 36.2257 8.90915C35.4934 9.18377 34.7122 8.64241 34.7122 7.8603V3.04392C34.7122 2.03571 34.1154 1.12312 33.1917 0.719007C33.0698 0.665671 32.9439 0.622007 32.8151 0.588418L32.0674 0.393362C31.0682 0.132694 30.0346 0.0283738 29.0034 0.0841125L28.6941 0.100834C27.3258 0.174795 25.9873 0.529176 24.7617 1.14198L24.3599 1.34292C23.598 1.72384 22.888 2.20053 22.2469 2.76142L21.3597 3.53776C20.8962 3.94332 20.5219 4.44065 20.2605 4.99829Z" fill="#747474"/>
<path d="M39.078 7.45221V3.19445C39.078 2.97509 39.3284 2.84987 39.5039 2.98149L39.7 3.12856C39.844 3.23651 40.0317 3.26698 40.2024 3.21008C40.2336 3.19968 40.2657 3.19211 40.2982 3.18746L40.9946 3.08797C41.2775 3.01725 41.568 2.98149 41.8596 2.98149H43.1242C43.4781 2.98149 43.8309 3.02022 44.1764 3.09698L44.615 3.19445L45.2185 3.39563C45.6674 3.54527 46.1084 3.72819 46.5316 3.93981L46.7555 4.06418C47.2442 4.33572 47.7094 4.64777 48.146 4.99706L48.5547 5.32405C48.9798 5.67825 49.3718 6.07028 49.726 6.49532L50.0825 6.99438C50.1995 7.1583 50.33 7.31227 50.4724 7.45472L50.7393 7.72157C50.7735 7.75578 50.8034 7.79406 50.8283 7.83556L50.9877 8.10132C51.0569 8.21652 51.203 8.25909 51.3232 8.199L51.6041 8.08665C51.7713 8.01977 51.9452 7.97111 52.1228 7.94151L52.223 7.92481C52.403 7.89482 52.5775 7.83807 52.7407 7.75647C52.8601 7.69674 52.9858 7.65026 53.1153 7.61787L53.1212 7.61641C53.2707 7.57903 53.4243 7.56012 53.5784 7.56012H55.449C55.892 7.56012 56.334 7.59998 56.7698 7.67922L56.9415 7.71043C57.1709 7.75215 57.3971 7.81009 57.6183 7.88383C58.0338 8.02234 58.429 8.21563 58.7935 8.45859L58.8833 8.51844L58.927 8.5403C59.4622 8.80792 59.9508 9.16009 60.374 9.58324C60.7972 9.93593 61.1616 10.3537 61.4536 10.8209L61.5453 10.9675L62.3971 12.1388C62.6097 12.4931 62.7936 12.8639 62.9471 13.2476L63.1425 13.736L63.2223 13.9754C63.3109 14.2411 63.3753 14.5143 63.415 14.7917L63.4379 14.9523C63.4539 15.0641 63.4619 15.1769 63.4619 15.2898V15.4396C63.4619 16.6746 64.463 17.6757 65.698 17.6757L66.0773 17.7231C66.39 17.7622 66.6938 17.8542 66.9757 17.9952L67.8276 18.3146L68.4665 18.634L69.2118 19.06L69.5054 19.1858C69.805 19.3142 70.0844 19.4854 70.3348 19.694C70.5085 19.8388 70.6672 20.0008 70.8085 20.1774L71.022 20.4442L71.628 21.1512C71.6498 21.1767 71.6684 21.2047 71.6834 21.2347C71.8198 21.5075 71.6215 21.8284 71.3165 21.8284H55.927C55.7197 21.8284 55.5849 22.0465 55.6776 22.2319C55.6851 22.2468 55.6939 22.2611 55.7039 22.2745L55.9293 22.575C55.9819 22.645 56.028 22.7197 56.0672 22.798C56.1685 23.0007 56.2213 23.2242 56.2213 23.4508V24.5649C56.2213 24.9361 56.1348 25.3021 55.9689 25.6341C55.8539 25.864 55.7027 26.0738 55.521 26.2555L55.1565 26.62L54.7765 26.9367C54.6048 27.0798 54.4133 27.1971 54.2078 27.2852C53.9204 27.4083 53.611 27.4719 53.2983 27.4719H53.1652C53.0023 27.4719 52.8396 27.4584 52.6789 27.4316L52.2032 27.3523C51.8331 27.2907 51.4789 27.1565 51.1607 26.9577C50.9155 26.8045 50.6951 26.6148 50.5069 26.3953L50.416 26.2892C50.2404 26.0844 50.0874 25.8614 49.9595 25.6239L49.6618 25.071C49.4943 24.7598 49.4066 24.4119 49.4066 24.0585C49.4066 23.8507 49.4369 23.6439 49.4966 23.4449L49.7106 22.7314C49.7208 22.6974 49.7349 22.6647 49.7525 22.6339C49.9305 22.3224 49.7056 21.9349 49.3469 21.9349H41.74C40.2698 21.9349 39.078 20.7431 39.078 19.2729V17.9892C39.078 17.228 39.6951 16.6109 40.4563 16.6109C40.6703 16.6109 40.8813 16.5611 41.0727 16.4654L41.5049 16.2493C41.7319 16.1358 41.9456 15.9974 42.1421 15.8367L42.6213 15.4446C42.8841 15.2295 43.1135 14.9765 43.3019 14.694L43.3137 14.6764C43.5403 14.3363 43.7021 13.9572 43.7908 13.5583C43.8432 13.3225 43.8696 13.0817 43.8696 12.8402V12.2914C43.8696 11.635 43.6851 10.9918 43.3372 10.4351L43.1061 10.105C42.7673 9.62094 42.3275 9.21611 41.8172 8.9184C41.4835 8.72373 41.1238 8.57736 40.749 8.48366L40.1382 8.33096C40.0705 8.31404 40.001 8.30548 39.9313 8.30548C39.46 8.30548 39.078 7.92346 39.078 7.45221Z" fill="#9D8568"/>
</svg>
